<svg width="24" height="25" viewBox="0 0 24 25" fill="none" xmlns="http://www.w3.org/2000/svg">
<g clip-path="url(#clip0_1_19391)">
<path d="M18.09 4.82031H5.90999C4.71153 4.82031 3.73999 5.79185 3.73999 6.99031V17.5003C3.73999 18.6988 4.71153 19.6703 5.90999 19.6703H18.09C19.2884 19.6703 20.26 18.6988 20.26 17.5003V6.99031C20.26 5.79185 19.2884 4.82031 18.09 4.82031Z" stroke="#30B4FF" stroke-width="1.3" stroke-miterlimit="10"/>
<path d="M3.73999 8.80957H20.26" stroke="#30B4FF" stroke-width="1.3" stroke-miterlimit="10"/>
<path d="M7.6001 3.66016V5.80016" stroke="#30B4FF" stroke-width="1.6" stroke-miterlimit="10" stroke-linecap="round"/>
<path d="M16.4001 3.66016V5.80016" stroke="#30B4FF" stroke-width="1.6" stroke-miterlimit="10" stroke-linecap="round"/>
<path d="M8.90993 10.8896H6.11993C6.015 10.8896 5.92993 10.9747 5.92993 11.0796V13.0496C5.92993 13.1546 6.015 13.2396 6.11993 13.2396H8.90993C9.01487 13.2396 9.09993 13.1546 9.09993 13.0496V11.0796C9.09993 10.9747 9.01487 10.8896 8.90993 10.8896Z" fill="#30B4FF"/>
<path d="M8.90993 14.4297H6.11993C6.015 14.4297 5.92993 14.5148 5.92993 14.6197V16.5897C5.92993 16.6946 6.015 16.7797 6.11993 16.7797H8.90993C9.01487 16.7797 9.09993 16.6946 9.09993 16.5897V14.6197C9.09993 14.5148 9.01487 14.4297 8.90993 14.4297Z" fill="#30B4FF"/>
<path d="M13.3699 14.4297H10.5799C10.475 14.4297 10.3899 14.5148 10.3899 14.6197V16.5897C10.3899 16.6946 10.475 16.7797 10.5799 16.7797H13.3699C13.4748 16.7797 13.5599 16.6946 13.5599 16.5897V14.6197C13.5599 14.5148 13.4748 14.4297 13.3699 14.4297Z" fill="#30B4FF"/>
<path d="M13.3699 10.8896H10.5799C10.475 10.8896 10.3899 10.9747 10.3899 11.0796V13.0496C10.3899 13.1546 10.475 13.2396 10.5799 13.2396H13.3699C13.4748 13.2396 13.5599 13.1546 13.5599 13.0496V11.0796C13.5599 10.9747 13.4748 10.8896 13.3699 10.8896Z" fill="#30B4FF"/>
<path d="M17.8799 10.8896H15.0899C14.985 10.8896 14.8999 10.9747 14.8999 11.0796V13.0496C14.8999 13.1546 14.985 13.2396 15.0899 13.2396H17.8799C17.9848 13.2396 18.0699 13.1546 18.0699 13.0496V11.0796C18.0699 10.9747 17.9848 10.8896 17.8799 10.8896Z" fill="#30B4FF"/>
</g>
<defs>
<clipPath id="clip0_1_19391">
<rect width="24" height="24" fill="white" transform="translate(0 0.5)"/>
</clipPath>
</defs>
</svg>
