<svg width="24" height="25" viewBox="0 0 24 25" fill="none" xmlns="http://www.w3.org/2000/svg">
<path d="M13.4626 14.402C13.4626 13.4852 12.7194 12.742 11.8026 12.742C10.8859 12.742 10.1426 13.4852 10.1426 14.402C10.1413 14.7907 10.2797 15.1669 10.5326 15.462C10.7875 15.7276 10.8759 16.1118 10.7626 16.462L10.5526 17.082C10.4714 17.3608 10.5251 17.6616 10.6978 17.8951C10.8704 18.1286 11.1423 18.268 11.4326 18.272H12.1726C12.4726 18.2719 12.7542 18.1271 12.9287 17.8832C13.1033 17.6392 13.1494 17.326 13.0526 17.042L12.8026 16.422C12.6894 16.0718 12.7778 15.6876 13.0326 15.422C13.2913 15.1431 13.4435 14.782 13.4626 14.402Z" fill="currentColor"/>
<path fill-rule="evenodd" clip-rule="evenodd" d="M14.6926 8.27202C16.0822 8.21692 17.4256 8.77612 18.3657 9.80094C19.3058 10.8258 19.7472 12.2123 19.5726 13.592L18.6226 19.362C18.1655 21.68 16.1045 23.3313 13.7426 23.272H9.86265C7.51752 23.3241 5.47121 21.6904 5.00265 19.392L4.05265 13.622C3.72137 11.451 4.98116 9.35136 7.05265 8.62202V5.50202C7.0521 4.68694 7.38323 3.90672 7.96986 3.34084C8.55649 2.77496 9.34812 2.47213 10.1626 2.50202H13.4426C14.2572 2.47213 15.0488 2.77496 15.6354 3.34084C16.2221 3.90672 16.5532 4.68694 16.5526 5.50202C16.5526 5.91623 16.2169 6.25202 15.8026 6.25202C15.3884 6.25202 15.0526 5.91623 15.0526 5.50202C15.0148 4.64965 14.2952 3.98815 13.4426 4.02202H10.1626C9.31011 3.98815 8.59051 4.64965 8.55265 5.50202V8.27202H14.6926ZM16.8026 19.062L17.8026 13.272C17.9019 12.523 17.6638 11.7685 17.1526 11.212C16.531 10.5071 15.6324 10.1089 14.6926 10.122H8.91265C7.97604 10.1039 7.07796 10.4945 6.45265 11.192C5.95367 11.7618 5.73381 12.524 5.85265 13.272L6.80265 19.062C7.1127 20.4884 8.40434 21.4845 9.86265 21.422H13.7426C15.2009 21.4845 16.4926 20.4884 16.8026 19.062Z" fill="currentColor"/>
</svg>
