<svg width="25" height="24" viewBox="0 0 25 24" fill="none" xmlns="http://www.w3.org/2000/svg">
<path opacity="0.4" d="M10.9842 17.2442H4.51172" stroke="currentColor" stroke-width="1.5" stroke-linecap="round" stroke-linejoin="round"/>
<path fill-rule="evenodd" clip-rule="evenodd" d="M15.0469 17.2452C15.0469 19.287 15.7278 19.967 17.7687 19.967C19.8096 19.967 20.4905 19.287 20.4905 17.2452C20.4905 15.2034 19.8096 14.5234 17.7687 14.5234C15.7278 14.5234 15.0469 15.2034 15.0469 17.2452Z" stroke="currentColor" stroke-width="1.5" stroke-linecap="round" stroke-linejoin="round"/>
<path opacity="0.4" d="M14.0176 6.75596H20.4892" stroke="currentColor" stroke-width="1.5" stroke-linecap="round" stroke-linejoin="round"/>
<path fill-rule="evenodd" clip-rule="evenodd" d="M9.95619 6.75499C9.95619 4.7141 9.2753 4.0332 7.2344 4.0332C5.19261 4.0332 4.51172 4.7141 4.51172 6.75499C4.51172 8.79678 5.19261 9.47678 7.2344 9.47678C9.2753 9.47678 9.95619 8.79678 9.95619 6.75499Z" stroke="currentColor" stroke-width="1.5" stroke-linecap="round" stroke-linejoin="round"/>
</svg>
