<svg width="25" height="24" viewBox="0 0 25 24" fill="none" xmlns="http://www.w3.org/2000/svg">
<path opacity="0.4" d="M10.8173 17.2442H4.34473" stroke="#5E5F65" stroke-width="1.5" stroke-linecap="round" stroke-linejoin="round"/>
<path fill-rule="evenodd" clip-rule="evenodd" d="M14.8787 17.2452C14.8787 19.287 15.5596 19.967 17.6005 19.967C19.6413 19.967 20.3222 19.287 20.3222 17.2452C20.3222 15.2034 19.6413 14.5234 17.6005 14.5234C15.5596 14.5234 14.8787 15.2034 14.8787 17.2452Z" stroke="#5E5F65" stroke-width="1.5" stroke-linecap="round" stroke-linejoin="round"/>
<path opacity="0.4" d="M13.8503 6.75499H20.322" stroke="#5E5F65" stroke-width="1.5" stroke-linecap="round" stroke-linejoin="round"/>
<path fill-rule="evenodd" clip-rule="evenodd" d="M9.78896 6.75402C9.78896 4.71312 9.10806 4.03223 7.06717 4.03223C5.02538 4.03223 4.34448 4.71312 4.34448 6.75402C4.34448 8.79581 5.02538 9.47581 7.06717 9.47581C9.10806 9.47581 9.78896 8.79581 9.78896 6.75402Z" stroke="#5E5F65" stroke-width="1.5" stroke-linecap="round" stroke-linejoin="round"/>
</svg>
