<svg width="248" height="22" viewBox="0 0 248 22" fill="none" xmlns="http://www.w3.org/2000/svg">
<path d="M31.6447 1.32617L25.6929 13.8116C25.549 14.0944 25.405 14.2359 25.2405 14.2359C25.076 14.2359 24.9102 14.0944 24.7663 13.8318L21.2256 7.31635V10.3594C23.0133 13.6487 24.7457 16.8458 24.7457 16.8458C24.7457 16.8458 30.862 3.95635 31.2129 3.30859C31.3362 3.08636 31.4596 2.98534 31.5624 2.98534C31.7064 2.98534 31.8105 3.18737 31.8105 3.53208V21.5607H33.5403V1.32617H31.646H31.6447Z" fill="white"/>
<path d="M0.539062 11.4438C0.539062 17.7573 5.15292 21.9658 10.8168 21.9658C14.3382 21.9658 17.7157 20.8938 18.7259 19.3962V17.1297C17.14 19.3558 14.0503 21.5605 10.8168 21.5605C6.05898 21.5605 2.18668 17.5136 2.18668 11.4426C2.18668 5.37158 6.05898 1.32593 10.8168 1.32593C14.3382 1.32593 17.3456 3.71367 17.654 5.98019C17.654 5.98019 18.5807 6.0206 18.5807 4.8665C18.5807 2.25653 14.5439 0.921875 10.8168 0.921875C5.15292 0.921875 0.539062 5.1304 0.539062 11.4438Z" fill="white"/>
<path d="M52.4482 11.4731C52.4482 11.1886 52.4653 10.8957 52.4993 10.6029C52.5419 10.3016 52.6186 9.99204 52.7123 9.65734C52.8059 9.32264 52.9252 9.00467 53.07 8.71181C53.2147 8.41058 53.3936 8.12608 53.6235 7.85832C53.862 7.5822 54.126 7.34792 54.4241 7.16383C54.7137 6.97138 55.0714 6.81239 55.4717 6.69524C55.8805 6.5781 56.3318 6.51953 56.8173 6.51953C58.8954 6.51953 60.1303 7.54036 60.505 9.5904H59.2446C59.1083 8.921 58.8443 8.41896 58.4269 8.09262C58.0096 7.75792 57.422 7.59057 56.6725 7.59057C55.7527 7.59057 55.0118 7.942 54.4752 8.63651C53.9387 9.32264 53.6746 10.2682 53.6746 11.4647C53.6746 12.6613 53.9472 13.5901 54.5093 14.2929C55.0799 14.9791 55.8294 15.3221 56.7832 15.3221C57.5668 15.3221 58.1544 15.1046 58.5717 14.6778C58.9976 14.2344 59.2871 13.565 59.4404 12.6529H60.7009C60.4028 15.1297 59.0912 16.3681 56.7577 16.3681C56.2126 16.3681 55.7101 16.2928 55.2502 16.1422C54.7988 15.9915 54.4241 15.7907 54.1175 15.5313C53.8109 15.2636 53.5384 14.9707 53.3169 14.6611C53.087 14.3348 52.9167 13.9917 52.8059 13.6152C52.6867 13.2303 52.6015 12.8705 52.5419 12.5358C52.4823 12.1843 52.4568 11.8413 52.4568 11.4898L52.4482 11.4731Z" fill="white"/>
<path d="M77.9562 13.2397H74.2856L73.2721 16.068H71.9775L75.3842 6.68799H76.9428L80.2983 16.068H78.9357L77.9562 13.2397ZM77.5985 12.244L76.1422 7.95148L74.5666 12.244H77.5985Z" fill="white"/>
<path d="M97.962 11.426C98.2856 11.5683 98.5326 11.744 98.7285 11.9532C98.9244 12.154 99.0606 12.3632 99.1202 12.5807C99.1884 12.8066 99.231 13.0326 99.248 13.2752C99.2735 13.5179 99.2735 13.7605 99.265 14.0116V14.6893C99.2735 14.8985 99.3246 15.0993 99.4098 15.3002C99.5035 15.501 99.6483 15.66 99.8356 15.7687V16.0616H98.3623C98.1834 15.66 98.0982 15.1495 98.0982 14.5303V13.6936C98.0982 13.1162 97.962 12.6895 97.7065 12.4217C97.4595 12.154 97.0592 12.0201 96.5141 12.0201H93.3715V16.0616H92.1621V6.68164H96.5652C97.4936 6.68164 98.2175 6.89919 98.7114 7.32593C99.2054 7.76104 99.4609 8.38024 99.4609 9.19189C99.4609 9.72741 99.3417 10.1709 99.1032 10.514C98.8733 10.8654 98.4985 11.1666 97.9705 11.4176L97.962 11.426ZM98.1919 9.35087C98.1919 9.03291 98.1408 8.77351 98.0471 8.54759C97.9535 8.33003 97.8087 8.16268 97.6213 8.06227C97.4425 7.94513 97.2466 7.86983 97.0336 7.81962C96.8292 7.77778 96.5908 7.75268 96.3097 7.75268H93.363V10.9742H96.3097C96.957 10.9742 97.4339 10.8487 97.732 10.5893C98.0386 10.3215 98.1919 9.9115 98.1919 9.35087Z" fill="white"/>
<path d="M113.248 11.7942V14.9989H118.895V16.0616H112.03V6.68164H118.648V7.7443H113.257V10.7399H118.452V11.7858H113.257L113.248 11.7942Z" fill="white"/>
<path d="M150.271 16.0616H148.994L146.277 8.19616V16.0616H145.127V6.68164H146.813L149.649 14.8567L152.434 6.68164H154.121V16.0616H152.971V8.19616L150.271 16.0616Z" fill="white"/>
<path d="M168.046 6.68164V16.0616H166.819V6.68164H168.046Z" fill="white"/>
<path d="M188.076 6.68164V16.0616H186.687L181.756 8.46391V16.0616H180.606V6.68164H181.935L186.917 14.3546V6.68164H188.067H188.076Z" fill="white"/>
<path d="M200.699 16.0616V6.68164H204.37C205.579 6.68164 206.525 7.10002 207.206 7.93676C207.904 8.77351 208.254 9.9115 208.254 11.3507C208.254 12.7899 207.904 13.9697 207.206 14.8065C206.516 15.6432 205.571 16.0616 204.37 16.0616H200.699ZM201.909 14.9989H204.166C205.111 14.9989 205.826 14.6977 206.312 14.0785C206.806 13.4677 207.061 12.564 207.061 11.3758C207.061 10.1876 206.814 9.29229 206.312 8.6731C205.826 8.06227 205.111 7.75268 204.166 7.75268H201.909V15.0073V14.9989Z" fill="white"/>
<path d="M221.836 11.7942V14.9989H227.483V16.0616H220.618V6.68164H227.236V7.7443H221.845V10.7399H227.04V11.7858H221.845L221.836 11.7942Z" fill="white"/>
<path d="M245.666 11.426C245.99 11.5683 246.237 11.744 246.433 11.9532C246.628 12.154 246.765 12.3632 246.824 12.5807C246.892 12.8066 246.935 13.0326 246.952 13.2752C246.978 13.5179 246.978 13.7605 246.969 14.0116V14.6893C246.978 14.8985 247.029 15.0993 247.114 15.3002C247.208 15.501 247.352 15.66 247.54 15.7687V16.0616H246.066C245.887 15.66 245.802 15.1495 245.802 14.5303V13.6936C245.802 13.1162 245.666 12.6895 245.411 12.4217C245.164 12.154 244.763 12.0201 244.218 12.0201H241.076V16.0616H239.866V6.68164H244.269C245.198 6.68164 245.922 6.89919 246.416 7.32593C246.91 7.76104 247.165 8.38024 247.165 9.19189C247.165 9.72741 247.046 10.1709 246.807 10.514C246.577 10.8654 246.203 11.1666 245.675 11.4176L245.666 11.426ZM245.896 9.35087C245.896 9.03291 245.845 8.77351 245.751 8.54759C245.658 8.33003 245.513 8.16268 245.325 8.06227C245.147 7.94513 244.951 7.86983 244.738 7.81962C244.533 7.77778 244.295 7.75268 244.014 7.75268H241.067V10.9742H244.014C244.661 10.9742 245.138 10.8487 245.436 10.5893C245.743 10.3215 245.896 9.9115 245.896 9.35087Z" fill="white"/>
</svg>
