<svg width="18" height="18" viewBox="0 0 18 18" fill="none" xmlns="http://www.w3.org/2000/svg">
<path d="M9.85693 17L16.8569 10M9.85693 17V11C9.85693 10.7348 9.96229 10.4804 10.1498 10.2929C10.3374 10.1054 10.5917 10 10.8569 10H16.8569M9.85693 17H2.85693C2.3265 17 1.81779 16.7893 1.44272 16.4142C1.06765 16.0391 0.856934 15.5304 0.856934 15V3C0.856934 2.46957 1.06765 1.96086 1.44272 1.58579C1.81779 1.21071 2.3265 1 2.85693 1H14.8569C15.3874 1 15.8961 1.21071 16.2711 1.58579C16.6462 1.96086 16.8569 2.46957 16.8569 3V10" fill="white" stroke="#30B4FF" stroke-width="1.5" stroke-linecap="round" stroke-linejoin="round"/>
</svg>
