<svg width="21" height="21" viewBox="0 0 21 21" fill="none" xmlns="http://www.w3.org/2000/svg">
<g clip-path="url(#clip0_762_577)">
<path d="M16.9825 3.55469H3.4625C3.2425 3.55469 3.0625 3.73469 3.0625 3.95469V17.4747C3.0625 17.6947 3.2425 17.8747 3.4625 17.8747H16.9825C17.2025 17.8747 17.3825 17.6947 17.3825 17.4747V3.95469C17.3825 3.73469 17.2025 3.55469 16.9825 3.55469ZM7.1025 6.00469C7.9625 6.00469 8.6625 6.70469 8.6625 7.56469C8.6625 8.42469 7.9625 9.12469 7.1025 9.12469C6.2425 9.12469 5.5425 8.42469 5.5425 7.56469C5.5325 6.70469 6.2325 6.00469 7.1025 6.00469ZM16.1125 16.6747H4.3425V15.5547L7.0825 12.2647C7.1225 12.2147 7.1925 12.2147 7.2325 12.2647L8.6325 13.9547L11.6725 9.98469C11.7125 9.93469 11.7925 9.93469 11.8325 9.98469L16.1125 15.5547V16.6747Z" fill="#C4C5CC"/>
</g>
<defs>
<clipPath id="clip0_762_577">
<rect width="14.32" height="14.32" fill="white" transform="translate(3.0625 3.55469)"/>
</clipPath>
</defs>
</svg>
