<svg width="25" height="25" viewBox="0 0 25 25" fill="none" xmlns="http://www.w3.org/2000/svg">
<g opacity="0.5">
<path d="M17.6658 16.2874V20.8208C17.6658 21.0793 17.4605 21.2875 17.2055 21.2875H4.60099C4.34602 21.2875 4.14062 21.0793 4.14062 20.8208V4.70502C4.14062 4.44652 4.34602 4.23828 4.60099 4.23828H17.2055C17.4605 4.23828 17.6658 4.44652 17.6658 4.70502V9.4275" stroke="white" stroke-width="2" stroke-miterlimit="10" stroke-linecap="round"/>
<path d="M4.59965 4.23828L12.5439 5.99993C13.0302 6.10764 13.3772 6.54566 13.3772 7.0507V22.9242C13.3772 23.6112 12.7493 24.1234 12.0882 23.9726L4.60201 22.2875C4.60201 22.2875 4.14165 22.4431 4.14165 21.4546V5.0114C4.14165 5.0114 3.95751 4.23828 4.59965 4.23828Z" fill="white"/>
<path d="M15.6328 12.7617H22.3636" stroke="white" stroke-width="2" stroke-miterlimit="10" stroke-linecap="round"/>
<path d="M19.9531 10.0352L22.6657 12.7877L20.0003 15.4901" stroke="white" stroke-width="2" stroke-linecap="round" stroke-linejoin="round"/>
</g>
</svg>
