<svg width="28" height="28" viewBox="0 0 18 17" fill="none" xmlns="http://www.w3.org/2000/svg">
<path d="M9.06769 15.7881C13.1149 15.7881 16.3958 12.5072 16.3958 8.45996C16.3958 4.41275 13.1149 1.13184 9.06769 1.13184C5.02048 1.13184 1.73956 4.41275 1.73956 8.45996C1.73956 12.5072 5.02048 15.7881 9.06769 15.7881Z" fill="#5D6DBE" stroke="#5D6DBE" stroke-width="2"/>
<path d="M9.76564 9.7594C8.49543 9.7594 7.46248 8.77046 7.46248 7.5519C7.46248 6.95448 7.71377 6.41288 8.11158 6.01577C8.02085 6.00809 7.93011 6.00391 7.8324 6.00391C6.03177 6.00321 4.57318 7.40323 4.57318 9.12988C4.57318 10.8572 6.03177 12.2573 7.8324 12.2573C9.63302 12.2573 10.9591 10.9801 11.0847 9.36159C10.7078 9.61214 10.2542 9.7594 9.76564 9.7594Z" stroke="white" stroke-width="1.5" stroke-linecap="round" stroke-linejoin="round"/>
<path d="M9.85636 4.74707H12.3968L9.76562 7.27423H12.3968" stroke="white" stroke-width="1.5" stroke-linecap="round" stroke-linejoin="round"/>
</svg>
