<svg width="24" height="25" viewBox="0 0 24 25" fill="currentColor" xmlns="http://www.w3.org/2000/svg">
<path opacity="1" fill-rule="evenodd" clip-rule="evenodd" d="M12.125 23.043C18.2001 23.043 23.125 18.1181 23.125 12.043C23.125 5.96784 18.2001 1.04297 12.125 1.04297C6.04987 1.04297 1.125 5.96784 1.125 12.043C1.125 18.1181 6.04987 23.043 12.125 23.043ZM13.625 8.04297C13.625 7.21454 12.9534 6.54297 12.125 6.54297C11.2966 6.54297 10.625 7.21454 10.625 8.04297V13.043C10.625 13.8714 11.2966 14.543 12.125 14.543H17.125C17.9534 14.543 18.625 13.8714 18.625 13.043C18.625 12.2145 17.9534 11.543 17.125 11.543H13.625V8.04297Z" fill="currentColor"/>
</svg>
