<svg width="24" height="25" viewBox="0 0 24 25" fill="currentColor" xmlns="http://www.w3.org/2000/svg">
<g opacity="1" clip-path="url(#clip0_533_7777)">
<path d="M6.52849 3.7202C6.15556 3.74333 5.79855 4.05415 5.79855 4.4105V9.47896C5.79855 9.82519 5.52416 10.1281 5.16185 10.1505C4.76467 10.175 4.50999 9.87507 4.50999 9.50137V4.44158C4.50999 4.04258 4.09461 3.71876 3.67621 3.71876C3.2578 3.71876 2.84243 4.04258 2.84243 4.44158V9.47896C2.84243 9.82519 2.64384 10.1281 2.28152 10.1505C1.88434 10.175 1.55386 9.87507 1.55386 9.50137V4.4105C1.55386 4.05415 1.19609 3.74333 0.823925 3.7202C0.415374 3.6949 0 4.00355 0 4.38737V10.9832C0 12.4288 2.27394 12.7179 2.27394 12.7179L2.30654 20.1269C2.30957 20.8859 2.88033 21.5003 3.67621 21.5003C4.47285 21.5003 5.04285 20.8866 5.04588 20.1269L5.07847 12.7179C5.07847 12.7179 7.35241 12.4288 7.35241 10.9832V4.38737C7.35241 4.00355 6.93704 3.6949 6.52849 3.7202Z" fill="currentColor"/>
<path d="M21.3517 14.1271V20.1627C21.3517 20.9014 21.9035 21.4999 22.6781 21.4999C23.4528 21.4999 24.0046 20.9014 24.0046 20.1627V3.88173C24.0046 3.64754 23.7855 3.46683 23.543 3.50514C22.9821 3.59333 22.1187 4.00678 20.9727 5.67001C19.5947 7.67007 19.3529 11.7931 19.3127 13.4324C19.3036 13.8134 19.6242 14.1271 20.0237 14.1271H21.3517Z" fill="currentColor"/>
<circle cx="13" cy="13" r="7.5" fill="currentColor"/>
<path d="M13 10V16" stroke="#5D6DBE" stroke-width="2" stroke-linecap="round"/>
<path d="M16 13L10 13" stroke="#5D6DBE" stroke-width="2" stroke-linecap="round"/>
</g>
<defs>
<clipPath id="clip0_533_7777">
<rect width="24" height="24" fill="currentColor" transform="translate(0 0.5)"/>
</clipPath>
</defs>
</svg>
