<svg width="24" height="25" viewBox="0 0 24 25" fill="currentColor" xmlns="http://www.w3.org/2000/svg">
<path d="M3.375 10.7042V20.1617C3.375 20.8967 3.9675 21.4892 4.7025 21.4892H8.73C9.1125 21.4892 9.42 21.1817 9.42 20.7992V16.4567C9.42 15.6917 10.0425 15.0767 10.8 15.0767H13.035C13.8 15.0767 14.415 15.6992 14.415 16.4567V20.7992C14.415 21.1817 14.7225 21.4892 15.105 21.4892H19.29C20.025 21.4892 20.6175 20.8967 20.6175 20.1617V10.7042C20.6175 10.2992 20.4375 9.92422 20.1225 9.66922L12.8325 3.80422C12.345 3.41422 11.655 3.41422 11.1675 3.80422L3.87 9.66922C3.555 9.92422 3.375 10.2992 3.375 10.7042Z" fill="currentColor"/>
</svg>
