<svg width="24" height="25" viewBox="0 0 24 25" fill="currentColor" xmlns="http://www.w3.org/2000/svg">
<g opacity="1">
<path fill-rule="evenodd" clip-rule="evenodd" d="M12 23.543C18.0751 23.543 23 18.6181 23 12.543C23 6.46784 18.0751 1.54297 12 1.54297C5.92487 1.54297 1 6.46784 1 12.543C1 18.6181 5.92487 23.543 12 23.543ZM10 7.54297C10 6.99068 10.4477 6.54297 11 6.54297H13C13.5523 6.54297 14 6.99068 14 7.54297V10.543H17C17.5523 10.543 18 10.9907 18 11.543V13.543C18 14.0953 17.5523 14.543 17 14.543H14V17.543C14 18.0953 13.5523 18.543 13 18.543H11C10.4477 18.543 10 18.0953 10 17.543V14.543H7C6.44771 14.543 6 14.0953 6 13.543V11.543C6 10.9907 6.44772 10.543 7 10.543H10V7.54297Z" fill="currentColor"/>
</g>
</svg>
