<svg width="24" height="25" viewBox="0 0 24 25" fill="currentColor" xmlns="http://www.w3.org/2000/svg">
<g opacity="1" clip-path="url(#clip0_533_7783)">
<path d="M6.69623 1.25544C6.32086 1.27985 5.96151 1.60794 5.96151 1.9841V7.33419C5.96151 7.69966 5.68533 8.01935 5.32064 8.04301C4.92086 8.06895 4.66451 7.75231 4.66451 7.35784V2.0169C4.66451 1.59573 4.24642 1.25391 3.82527 1.25391C3.40413 1.25391 2.98604 1.59573 2.98604 2.0169V7.33419C2.98604 7.69966 2.78614 8.01935 2.42146 8.04301C2.02168 8.06895 1.68903 7.75231 1.68903 7.35784V1.9841C1.68903 1.60794 1.32892 1.27985 0.954319 1.25544C0.543093 1.22873 0.125 1.55453 0.125 1.95968V8.92197C0.125 10.448 2.41383 10.7531 2.41383 10.7531L2.44663 18.5738C2.44969 19.3749 3.02418 20.0235 3.82527 20.0235C4.62713 20.0235 5.20086 19.3757 5.20391 18.5738L5.23672 10.7531C5.23672 10.7531 7.52554 10.448 7.52554 8.92197V1.95968C7.52554 1.55453 7.10745 1.22873 6.69623 1.25544Z" fill="currentColor"/>
<path fill-rule="evenodd" clip-rule="evenodd" d="M16 24.1406C19.4518 24.1406 22.25 21.3424 22.25 17.8906C22.25 14.4388 19.4518 11.6406 16 11.6406C12.5482 11.6406 9.75 14.4388 9.75 17.8906C9.75 21.3424 12.5482 24.1406 16 24.1406ZM17 15.6179C17 15.0656 16.5523 14.6179 16 14.6179C15.4477 14.6179 15 15.0656 15 15.6179V18.4588C15 19.0111 15.4477 19.4588 16 19.4588H18.8409C19.3932 19.4588 19.8409 19.0111 19.8409 18.4588C19.8409 17.9065 19.3932 17.4588 18.8409 17.4588H17V15.6179Z" fill="currentColor"/>
<ellipse cx="14.25" cy="5.64551" rx="3.75" ry="5.12988" fill="currentColor"/>
<rect x="13.0625" y="9.02344" width="2" height="8.80273" fill="currentColor"/>
</g>
<defs>
<clipPath id="clip0_533_7783">
<rect width="24" height="24" fill="currentColor" transform="translate(0 0.0234375)"/>
</clipPath>
</defs>
</svg>
