<svg width="24" height="25" viewBox="0 0 24 25" fill="none" xmlns="http://www.w3.org/2000/svg">
<g opacity="0.5" clip-path="url(#clip0_533_7804)">
<g clip-path="url(#clip1_533_7804)">
<path d="M23.8294 10.1501L22.0308 9.80336C21.424 9.68417 20.9256 9.27243 20.698 8.69817C20.4705 8.1239 20.5572 7.47379 20.9256 6.97537L22.0525 5.43677C22.1608 5.29591 22.1391 5.10087 22.0199 4.97085L19.5278 2.47875C19.4087 2.35957 19.2245 2.3379 19.0728 2.43541L17.5558 3.46476C17.0466 3.81148 16.3965 3.8765 15.8222 3.62729C15.2588 3.37808 14.8579 2.86882 14.7604 2.25121L14.4678 0.365886C14.4461 0.192523 14.2944 0.0625 14.1102 0.0625H10.578C10.4046 0.0625 10.2637 0.181687 10.2312 0.355051L9.80866 2.54376C9.68947 3.15054 9.2994 3.62729 8.72514 3.86566C8.15087 4.10403 7.53326 4.03902 7.02401 3.6923L5.18202 2.43541C5.04116 2.3379 4.84613 2.35957 4.72694 2.47875L2.23484 4.96002C2.11566 5.0792 2.09399 5.28507 2.20234 5.42593L3.3292 6.97537C3.6976 7.47379 3.78428 8.1239 3.55674 8.69817C3.3292 9.27243 2.83078 9.69501 2.22401 9.81419L0.425363 10.1609C0.262835 10.1934 0.132812 10.3451 0.132812 10.5076V14.0399C0.132812 14.2133 0.262835 14.365 0.436199 14.3975L2.32153 14.69C2.93913 14.7876 3.44839 15.1776 3.6976 15.7519C3.94681 16.3153 3.8818 16.9654 3.53507 17.4855L2.50572 19.0025C2.40821 19.1433 2.42988 19.3383 2.54907 19.4575L5.04116 21.9496C5.17119 22.0688 5.36622 22.0905 5.50708 21.9821L7.05651 20.8553C7.55493 20.4869 8.20505 20.4002 8.77931 20.6277C9.35358 20.8553 9.77615 21.3537 9.88451 21.9605L10.2312 23.7591C10.2637 23.9216 10.4154 24.0517 10.578 24.0517H14.1102C14.2836 24.0517 14.4353 23.9216 14.4678 23.7483L14.6953 22.2747C14.7929 21.6462 15.2046 21.1262 15.7897 20.8878C16.3748 20.6494 17.0357 20.7253 17.545 21.1045L18.7477 21.9821C18.8886 22.0797 19.0836 22.0688 19.2136 21.9496L21.7057 19.4575C21.8249 19.3383 21.8466 19.1433 21.7491 19.0025L20.7197 17.4855C20.373 16.9654 20.308 16.3262 20.5572 15.7519C20.8064 15.1885 21.3157 14.7876 21.9333 14.69L23.8294 14.3975C24.0028 14.3758 24.1328 14.2241 24.1328 14.0399V10.5076C24.1328 10.3343 24.0136 10.1934 23.8403 10.1609L23.8294 10.1501ZM12.1166 16.0769C9.89534 16.0769 8.08586 14.2675 8.08586 12.0462C8.08586 9.82503 9.89534 8.01555 12.1166 8.01555C14.3378 8.01555 16.1473 9.82503 16.1473 12.0462C16.1473 14.2675 14.3378 16.0769 12.1166 16.0769Z" fill="white"/>
</g>
</g>
<defs>
<clipPath id="clip0_533_7804">
<rect width="24" height="24" fill="white" transform="translate(0 0.0429688)"/>
</clipPath>
<clipPath id="clip1_533_7804">
<rect width="24" height="24" fill="white" transform="translate(0.125 0.0429688)"/>
</clipPath>
</defs>
</svg>
