<svg width="24" height="25" viewBox="0 0 24 25" fill="currentColor" xmlns="http://www.w3.org/2000/svg">
<g opacity="1" clip-path="url(#clip0_533_1551)">
<path fill-rule="evenodd" clip-rule="evenodd" d="M13.2797 11.5698C14.4913 11.0675 15.3435 9.87327 15.3435 8.48005C15.3435 6.63358 13.8466 5.13672 12.0001 5.13672C10.1536 5.13672 8.65679 6.63358 8.65679 8.48005C8.65679 9.87309 9.50875 11.0671 10.72 11.5696C8.22851 12.1515 6.24944 14.4004 5.66016 17.285C5.47175 18.1938 6.06467 19.0749 6.86263 19.0749H17.1363C17.9342 19.0749 18.5271 18.1993 18.3387 17.285C17.7495 14.4007 15.7708 12.152 13.2797 11.5698Z" fill="currentColor"/>
<path fill-rule="evenodd" clip-rule="evenodd" d="M5.9103 11.7004C6.8235 11.3218 7.46584 10.4217 7.46584 9.37157C7.46584 7.97981 6.33759 6.85156 4.94582 6.85156C3.55406 6.85156 2.42581 7.97981 2.42581 9.37157C2.42581 10.4216 3.06797 11.3216 3.98098 11.7003C2.103 12.1389 0.611294 13.834 0.167125 16.0082C0.0251155 16.6932 0.472026 17.3573 1.07348 17.3573H8.81715C9.4186 17.3573 9.86551 16.6974 9.7235 16.0082C9.27938 13.8342 7.78797 12.1393 5.9103 11.7004Z" fill="currentColor"/>
<path fill-rule="evenodd" clip-rule="evenodd" d="M20.1603 11.7004C21.0735 11.3218 21.7158 10.4217 21.7158 9.37157C21.7158 7.97981 20.5876 6.85156 19.1958 6.85156C17.8041 6.85156 16.6758 7.97981 16.6758 9.37157C16.6758 10.4216 17.318 11.3216 18.231 11.7003C16.353 12.1389 14.8613 13.834 14.4171 16.0082C14.2751 16.6932 14.722 17.3573 15.3235 17.3573H23.0671C23.6686 17.3573 24.1155 16.6974 23.9735 16.0082C23.5294 13.8342 22.038 12.1393 20.1603 11.7004Z" fill="currentColor"/>
</g>
<defs>
<clipPath id="clip0_533_1551">
<rect width="24" height="24" fill="currentColor" transform="translate(0 0.636719)"/>
</clipPath>
</defs>
</svg>
